<mxfile host="app.diagrams.net" modified="2023-06-21T08:44:25.993Z" agent="Mozilla/5.0 (Windows NT 10.0; Win64; x64) AppleWebKit/537.36 (KHTML, like Gecko) Chrome/114.0.0.0 Safari/537.36" etag="PXLVikASgcg3d0OAtpJy" version="21.5.0" type="device" pages="3">
  <diagram id="piDafpqhtRUU5qUU-vj8" name="Page-1">
    <mxGraphModel dx="2307" dy="836" grid="1" gridSize="10" guides="1" tooltips="1" connect="1" arrows="1" fold="1" page="1" pageScale="1" pageWidth="827" pageHeight="1169" math="0" shadow="0">
      <root>
        <mxCell id="0" />
        <mxCell id="1" parent="0" />
        <mxCell id="8962rQQDY3VNNf6We3Pp-1" value="" style="strokeWidth=1;shadow=0;dashed=0;align=center;html=1;shape=mxgraph.mockup.containers.browserWindow;rSize=0;strokeColor2=#008cff;strokeColor3=#c4c4c4;mainText=,;recursiveResize=0;strokeColor=#FFFFFF;fontColor=#FFFFFF;" parent="1" vertex="1">
          <mxGeometry x="-130" y="190" width="1150" height="1330" as="geometry" />
        </mxCell>
        <mxCell id="8962rQQDY3VNNf6We3Pp-2" value="Page 1" style="strokeWidth=1;shadow=0;dashed=0;align=center;html=1;shape=mxgraph.mockup.containers.anchor;fontSize=17;fontColor=#666666;align=left;" parent="8962rQQDY3VNNf6We3Pp-1" vertex="1">
          <mxGeometry x="60" y="12" width="110" height="26" as="geometry" />
        </mxCell>
        <mxCell id="8962rQQDY3VNNf6We3Pp-3" value="https://www.example.com" style="strokeWidth=1;shadow=0;dashed=0;align=center;html=1;shape=mxgraph.mockup.containers.anchor;rSize=0;fontSize=17;fontColor=#666666;align=left;" parent="8962rQQDY3VNNf6We3Pp-1" vertex="1">
          <mxGeometry x="130" y="60" width="250" height="26" as="geometry" />
        </mxCell>
        <mxCell id="8962rQQDY3VNNf6We3Pp-4" value="" style="verticalLabelPosition=bottom;shadow=0;dashed=0;align=center;html=1;verticalAlign=top;strokeWidth=1;shape=mxgraph.mockup.containers.videoPlayer;strokeColor=#666666;strokeColor2=#008cff;strokeColor3=#c4c4c4;textColor=#666666;fillColor2=#008cff;barHeight=30;barPos=20;" parent="8962rQQDY3VNNf6We3Pp-1" vertex="1">
          <mxGeometry x="40" y="110" width="1150" height="590" as="geometry" />
        </mxCell>
        <mxCell id="8962rQQDY3VNNf6We3Pp-6" value="Dropdown" style="rounded=1;fillColor=#F1F2F4;strokeColor=none;html=1;fontColor=#596780;align=left;fontSize=10;spacingLeft=10" parent="8962rQQDY3VNNf6We3Pp-1" vertex="1">
          <mxGeometry x="900" y="127" width="90" height="33" as="geometry" />
        </mxCell>
        <mxCell id="8962rQQDY3VNNf6We3Pp-7" value="" style="shape=triangle;direction=south;fillColor=#596780;strokeColor=none;html=1" parent="8962rQQDY3VNNf6We3Pp-6" vertex="1">
          <mxGeometry x="1" y="0.5" width="12" height="6" relative="1" as="geometry">
            <mxPoint x="-20" y="-3" as="offset" />
          </mxGeometry>
        </mxCell>
        <mxCell id="8962rQQDY3VNNf6We3Pp-8" value="Dropdown" style="rounded=1;fillColor=#F1F2F4;strokeColor=none;html=1;fontColor=#596780;align=left;fontSize=10;spacingLeft=10" parent="8962rQQDY3VNNf6We3Pp-1" vertex="1">
          <mxGeometry x="790" y="127" width="90" height="33" as="geometry" />
        </mxCell>
        <mxCell id="8962rQQDY3VNNf6We3Pp-9" value="" style="shape=triangle;direction=south;fillColor=#596780;strokeColor=none;html=1" parent="8962rQQDY3VNNf6We3Pp-8" vertex="1">
          <mxGeometry x="1" y="0.5" width="12" height="6" relative="1" as="geometry">
            <mxPoint x="-20" y="-3" as="offset" />
          </mxGeometry>
        </mxCell>
        <mxCell id="8962rQQDY3VNNf6We3Pp-10" value="Dropdown" style="rounded=1;fillColor=#F1F2F4;strokeColor=none;html=1;fontColor=#596780;align=left;fontSize=10;spacingLeft=10" parent="8962rQQDY3VNNf6We3Pp-1" vertex="1">
          <mxGeometry x="680" y="127" width="90" height="33" as="geometry" />
        </mxCell>
        <mxCell id="8962rQQDY3VNNf6We3Pp-11" value="" style="shape=triangle;direction=south;fillColor=#596780;strokeColor=none;html=1" parent="8962rQQDY3VNNf6We3Pp-10" vertex="1">
          <mxGeometry x="1" y="0.5" width="12" height="6" relative="1" as="geometry">
            <mxPoint x="-20" y="-3" as="offset" />
          </mxGeometry>
        </mxCell>
        <mxCell id="8962rQQDY3VNNf6We3Pp-12" value="Dropdown" style="rounded=1;fillColor=#F1F2F4;strokeColor=none;html=1;fontColor=#596780;align=left;fontSize=10;spacingLeft=10" parent="8962rQQDY3VNNf6We3Pp-1" vertex="1">
          <mxGeometry x="570" y="127" width="90" height="33" as="geometry" />
        </mxCell>
        <mxCell id="8962rQQDY3VNNf6We3Pp-13" value="" style="shape=triangle;direction=south;fillColor=#596780;strokeColor=none;html=1" parent="8962rQQDY3VNNf6We3Pp-12" vertex="1">
          <mxGeometry x="1" y="0.5" width="12" height="6" relative="1" as="geometry">
            <mxPoint x="-20" y="-3" as="offset" />
          </mxGeometry>
        </mxCell>
        <mxCell id="8962rQQDY3VNNf6We3Pp-14" value="Try now" style="rounded=1;align=center;strokeColor=none;html=1;fontColor=#ffffff;fontSize=12;fillColor=#008CFF;" parent="8962rQQDY3VNNf6We3Pp-1" vertex="1">
          <mxGeometry x="1045" y="127" width="86" height="33" as="geometry" />
        </mxCell>
        <mxCell id="8962rQQDY3VNNf6We3Pp-16" value="The d company" style="text;html=1;strokeColor=none;fillColor=none;align=center;verticalAlign=middle;whiteSpace=wrap;rounded=0;fontSize=13;fontColor=#0066CC;" parent="8962rQQDY3VNNf6We3Pp-1" vertex="1">
          <mxGeometry x="140" y="130" width="100" height="20" as="geometry" />
        </mxCell>
        <mxCell id="8962rQQDY3VNNf6We3Pp-17" value="" style="html=1;verticalLabelPosition=bottom;align=center;labelBackgroundColor=#ffffff;verticalAlign=top;strokeWidth=2;strokeColor=#0080F0;shadow=0;dashed=0;shape=mxgraph.ios7.icons.video_conversation;fontSize=13;fontColor=#0066CC;" parent="8962rQQDY3VNNf6We3Pp-1" vertex="1">
          <mxGeometry x="420" y="320" width="310" height="170" as="geometry" />
        </mxCell>
        <mxCell id="8962rQQDY3VNNf6We3Pp-18" value="" style="verticalLabelPosition=bottom;shadow=0;dashed=0;align=center;html=1;verticalAlign=top;strokeWidth=1;shape=mxgraph.mockup.graphics.simpleIcon;strokeColor=#999999;fontSize=13;fontColor=#0066CC;" parent="8962rQQDY3VNNf6We3Pp-1" vertex="1">
          <mxGeometry x="680" y="800" width="50" height="50" as="geometry" />
        </mxCell>
        <mxCell id="8962rQQDY3VNNf6We3Pp-19" value="" style="verticalLabelPosition=bottom;shadow=0;dashed=0;align=center;html=1;verticalAlign=top;strokeWidth=1;shape=mxgraph.mockup.graphics.simpleIcon;strokeColor=#999999;fontSize=13;fontColor=#0066CC;" parent="8962rQQDY3VNNf6We3Pp-1" vertex="1">
          <mxGeometry x="780" y="800" width="50" height="50" as="geometry" />
        </mxCell>
        <mxCell id="8962rQQDY3VNNf6We3Pp-20" value="" style="verticalLabelPosition=bottom;shadow=0;dashed=0;align=center;html=1;verticalAlign=top;strokeWidth=1;shape=mxgraph.mockup.graphics.simpleIcon;strokeColor=#999999;fontSize=13;fontColor=#0066CC;" parent="8962rQQDY3VNNf6We3Pp-1" vertex="1">
          <mxGeometry x="880" y="800" width="50" height="50" as="geometry" />
        </mxCell>
        <mxCell id="8962rQQDY3VNNf6We3Pp-21" value="" style="verticalLabelPosition=bottom;shadow=0;dashed=0;align=center;html=1;verticalAlign=top;strokeWidth=1;shape=mxgraph.mockup.graphics.simpleIcon;strokeColor=#999999;fontSize=13;fontColor=#0066CC;" parent="8962rQQDY3VNNf6We3Pp-1" vertex="1">
          <mxGeometry x="680" y="890" width="50" height="50" as="geometry" />
        </mxCell>
        <mxCell id="8962rQQDY3VNNf6We3Pp-22" value="" style="verticalLabelPosition=bottom;shadow=0;dashed=0;align=center;html=1;verticalAlign=top;strokeWidth=1;shape=mxgraph.mockup.graphics.simpleIcon;strokeColor=#999999;fontSize=13;fontColor=#0066CC;" parent="8962rQQDY3VNNf6We3Pp-1" vertex="1">
          <mxGeometry x="780" y="890" width="50" height="50" as="geometry" />
        </mxCell>
        <mxCell id="8962rQQDY3VNNf6We3Pp-23" value="" style="verticalLabelPosition=bottom;shadow=0;dashed=0;align=center;html=1;verticalAlign=top;strokeWidth=1;shape=mxgraph.mockup.graphics.simpleIcon;strokeColor=#999999;fontSize=13;fontColor=#0066CC;" parent="8962rQQDY3VNNf6We3Pp-1" vertex="1">
          <mxGeometry x="880" y="890" width="50" height="50" as="geometry" />
        </mxCell>
        <mxCell id="8962rQQDY3VNNf6We3Pp-24" value="" style="verticalLabelPosition=bottom;shadow=0;dashed=0;align=center;html=1;verticalAlign=top;strokeWidth=1;shape=mxgraph.mockup.graphics.simpleIcon;strokeColor=#999999;fontSize=13;fontColor=#0066CC;" parent="8962rQQDY3VNNf6We3Pp-1" vertex="1">
          <mxGeometry x="680" y="980" width="50" height="50" as="geometry" />
        </mxCell>
        <mxCell id="8962rQQDY3VNNf6We3Pp-25" value="" style="verticalLabelPosition=bottom;shadow=0;dashed=0;align=center;html=1;verticalAlign=top;strokeWidth=1;shape=mxgraph.mockup.graphics.simpleIcon;strokeColor=#999999;fontSize=13;fontColor=#0066CC;" parent="8962rQQDY3VNNf6We3Pp-1" vertex="1">
          <mxGeometry x="780" y="980" width="50" height="50" as="geometry" />
        </mxCell>
        <mxCell id="8962rQQDY3VNNf6We3Pp-26" value="" style="verticalLabelPosition=bottom;shadow=0;dashed=0;align=center;html=1;verticalAlign=top;strokeWidth=1;shape=mxgraph.mockup.graphics.simpleIcon;strokeColor=#999999;fontSize=13;fontColor=#0066CC;" parent="8962rQQDY3VNNf6We3Pp-1" vertex="1">
          <mxGeometry x="880" y="980" width="50" height="50" as="geometry" />
        </mxCell>
        <mxCell id="8962rQQDY3VNNf6We3Pp-27" value="" style="strokeWidth=1;shadow=0;dashed=0;align=center;html=1;shape=mxgraph.mockup.buttons.multiButton;fillColor=#008cff;strokeColor=#666666;mainText=;subText=;fontSize=13;fontColor=#0066CC;" parent="8962rQQDY3VNNf6We3Pp-1" vertex="1">
          <mxGeometry x="204" y="810" width="200" height="210" as="geometry" />
        </mxCell>
        <mxCell id="8962rQQDY3VNNf6We3Pp-28" value="These companies&lt;br&gt;trust us" style="strokeWidth=1;shadow=0;dashed=0;align=center;html=1;shape=mxgraph.mockup.anchor;fontSize=16;fontColor=#ffffff;fontStyle=1;whiteSpace=wrap;" parent="8962rQQDY3VNNf6We3Pp-27" vertex="1">
          <mxGeometry y="33.6" width="200" height="84" as="geometry" />
        </mxCell>
        <mxCell id="8962rQQDY3VNNf6We3Pp-29" value="" style="strokeWidth=1;shadow=0;dashed=0;align=center;html=1;shape=mxgraph.mockup.anchor;fontSize=12;fontColor=#ffffff;fontStyle=1;whiteSpace=wrap;" parent="8962rQQDY3VNNf6We3Pp-27" vertex="1">
          <mxGeometry y="126" width="200" height="42" as="geometry" />
        </mxCell>
        <mxCell id="8962rQQDY3VNNf6We3Pp-35" value="" style="verticalLabelPosition=bottom;shadow=0;dashed=0;align=center;html=1;verticalAlign=top;strokeWidth=1;shape=mxgraph.mockup.markup.line;strokeColor=#999999;fillColor=#008CFF;fontSize=13;fontColor=#0066CC;" parent="8962rQQDY3VNNf6We3Pp-1" vertex="1">
          <mxGeometry y="1180" width="1150" height="20" as="geometry" />
        </mxCell>
        <mxCell id="8962rQQDY3VNNf6We3Pp-30" value="" style="shape=rect;fillColor=#ffffff;strokeColor=#eeeeee;shadow=0;fontSize=13;fontColor=#0066CC;" parent="8962rQQDY3VNNf6We3Pp-1" vertex="1">
          <mxGeometry x="425" y="1230" width="300" height="40" as="geometry" />
        </mxCell>
        <mxCell id="8962rQQDY3VNNf6We3Pp-31" value="BUTTON" style="shape=rect;strokeColor=none;fillColor=none;fontSize=12;fontColor=#2196F3;dashed=0;" parent="8962rQQDY3VNNf6We3Pp-30" vertex="1">
          <mxGeometry width="75" height="40" as="geometry" />
        </mxCell>
        <mxCell id="8962rQQDY3VNNf6We3Pp-32" value="BUTTON" style="shape=rect;strokeColor=none;fillColor=none;fontSize=12;fontColor=#2196F3;dashed=0;" parent="8962rQQDY3VNNf6We3Pp-30" vertex="1">
          <mxGeometry x="75" width="75" height="40" as="geometry" />
        </mxCell>
        <mxCell id="8962rQQDY3VNNf6We3Pp-33" value="BUTTON" style="shape=rect;strokeColor=none;fillColor=none;fontSize=12;fontColor=#2196F3;dashed=0;" parent="8962rQQDY3VNNf6We3Pp-30" vertex="1">
          <mxGeometry x="150" width="75" height="40" as="geometry" />
        </mxCell>
        <mxCell id="8962rQQDY3VNNf6We3Pp-34" value="BUTTON" style="shape=rect;strokeColor=none;fillColor=none;fontSize=12;fontColor=#2196F3;dashed=0;" parent="8962rQQDY3VNNf6We3Pp-30" vertex="1">
          <mxGeometry x="225" width="75" height="40" as="geometry" />
        </mxCell>
        <mxCell id="8962rQQDY3VNNf6We3Pp-36" value="" style="shape=image;html=1;verticalAlign=top;verticalLabelPosition=bottom;labelBackgroundColor=#ffffff;imageAspect=0;aspect=fixed;image=https://cdn3.iconfinder.com/data/icons/peelicons-vol-1/50/LinkedIn-128.png;fillColor=#008CFF;fontSize=13;fontColor=#0066CC;" parent="8962rQQDY3VNNf6We3Pp-1" vertex="1">
          <mxGeometry x="870" y="1235" width="30" height="30" as="geometry" />
        </mxCell>
        <mxCell id="8962rQQDY3VNNf6We3Pp-37" value="" style="shape=image;html=1;verticalAlign=top;verticalLabelPosition=bottom;labelBackgroundColor=#ffffff;imageAspect=0;aspect=fixed;image=https://cdn3.iconfinder.com/data/icons/peelicons-vol-1/50/Facebook-128.png;fillColor=#008CFF;fontSize=13;fontColor=#0066CC;" parent="8962rQQDY3VNNf6We3Pp-1" vertex="1">
          <mxGeometry x="920" y="1235" width="30" height="30" as="geometry" />
        </mxCell>
        <mxCell id="8962rQQDY3VNNf6We3Pp-38" value="" style="shape=image;html=1;verticalAlign=top;verticalLabelPosition=bottom;labelBackgroundColor=#ffffff;imageAspect=0;aspect=fixed;image=https://cdn3.iconfinder.com/data/icons/peelicons-vol-1/50/Twitter-128.png;fillColor=#008CFF;fontSize=13;fontColor=#0066CC;" parent="8962rQQDY3VNNf6We3Pp-1" vertex="1">
          <mxGeometry x="970" y="1235" width="30" height="30" as="geometry" />
        </mxCell>
        <mxCell id="seymav8gBYocV3_De4xC-2" value="d" style="text;html=1;align=center;verticalAlign=middle;resizable=0;points=[];autosize=1;fontSize=37;fontFamily=Tahoma;fillColor=#008CFF;fontColor=#FFFFFF;" parent="8962rQQDY3VNNf6We3Pp-1" vertex="1">
          <mxGeometry x="100" y="110" width="40" height="50" as="geometry" />
        </mxCell>
        <mxCell id="EMISpoD9vikw95knzvkW-3" value="" style="strokeWidth=1;shadow=0;dashed=0;align=center;html=1;shape=mxgraph.mockup.forms.rrect;rSize=5;strokeColor=#999999;fillColor=#ffffff;fontSize=16;" vertex="1" parent="8962rQQDY3VNNf6We3Pp-1">
          <mxGeometry x="120" y="350" width="160" height="175" as="geometry" />
        </mxCell>
        <mxCell id="EMISpoD9vikw95knzvkW-4" value="October 2014" style="strokeWidth=1;shadow=0;dashed=0;align=center;html=1;shape=mxgraph.mockup.forms.anchor;fontColor=#999999;fontSize=16;" vertex="1" parent="EMISpoD9vikw95knzvkW-3">
          <mxGeometry x="30" y="8" width="100" height="20" as="geometry" />
        </mxCell>
        <mxCell id="EMISpoD9vikw95knzvkW-5" value="&lt;" style="strokeWidth=1;shadow=0;dashed=0;align=center;html=1;shape=mxgraph.mockup.forms.rrect;rSize=4;strokeColor=#999999;fontColor=#008cff;fontSize=19;fontStyle=1;" vertex="1" parent="EMISpoD9vikw95knzvkW-3">
          <mxGeometry x="8" y="8" width="25" height="20" as="geometry" />
        </mxCell>
        <mxCell id="EMISpoD9vikw95knzvkW-6" value="&gt;" style="strokeWidth=1;shadow=0;dashed=0;align=center;html=1;shape=mxgraph.mockup.forms.rrect;rSize=4;strokeColor=#999999;fontColor=#008cff;fontSize=19;fontStyle=1;" vertex="1" parent="EMISpoD9vikw95knzvkW-3">
          <mxGeometry x="127" y="8" width="25" height="20" as="geometry" />
        </mxCell>
        <mxCell id="EMISpoD9vikw95knzvkW-7" value="Mo" style="strokeWidth=1;shadow=0;dashed=0;align=center;html=1;shape=mxgraph.mockup.forms.anchor;fontColor=#999999;fontSize=16;" vertex="1" parent="EMISpoD9vikw95knzvkW-3">
          <mxGeometry x="10" y="28" width="20" height="20" as="geometry" />
        </mxCell>
        <mxCell id="EMISpoD9vikw95knzvkW-8" value="Tu" style="strokeWidth=1;shadow=0;dashed=0;align=center;html=1;shape=mxgraph.mockup.forms.anchor;fontColor=#999999;fontSize=16;" vertex="1" parent="EMISpoD9vikw95knzvkW-3">
          <mxGeometry x="30" y="28" width="20" height="20" as="geometry" />
        </mxCell>
        <mxCell id="EMISpoD9vikw95knzvkW-9" value="We" style="strokeWidth=1;shadow=0;dashed=0;align=center;html=1;shape=mxgraph.mockup.forms.anchor;fontColor=#999999;fontSize=16;" vertex="1" parent="EMISpoD9vikw95knzvkW-3">
          <mxGeometry x="50" y="28" width="20" height="20" as="geometry" />
        </mxCell>
        <mxCell id="EMISpoD9vikw95knzvkW-10" value="Th" style="strokeWidth=1;shadow=0;dashed=0;align=center;html=1;shape=mxgraph.mockup.forms.anchor;fontColor=#999999;fontSize=16;" vertex="1" parent="EMISpoD9vikw95knzvkW-3">
          <mxGeometry x="70" y="28" width="20" height="20" as="geometry" />
        </mxCell>
        <mxCell id="EMISpoD9vikw95knzvkW-11" value="Fr" style="strokeWidth=1;shadow=0;dashed=0;align=center;html=1;shape=mxgraph.mockup.forms.anchor;fontColor=#999999;fontSize=16;" vertex="1" parent="EMISpoD9vikw95knzvkW-3">
          <mxGeometry x="90" y="28" width="20" height="20" as="geometry" />
        </mxCell>
        <mxCell id="EMISpoD9vikw95knzvkW-12" value="Sa" style="strokeWidth=1;shadow=0;dashed=0;align=center;html=1;shape=mxgraph.mockup.forms.anchor;fontColor=#999999;fontSize=16;" vertex="1" parent="EMISpoD9vikw95knzvkW-3">
          <mxGeometry x="110" y="28" width="20" height="20" as="geometry" />
        </mxCell>
        <mxCell id="EMISpoD9vikw95knzvkW-13" value="Su" style="strokeWidth=1;shadow=0;dashed=0;align=center;html=1;shape=mxgraph.mockup.forms.anchor;fontColor=#999999;fontSize=16;" vertex="1" parent="EMISpoD9vikw95knzvkW-3">
          <mxGeometry x="130" y="28" width="20" height="20" as="geometry" />
        </mxCell>
        <mxCell id="EMISpoD9vikw95knzvkW-14" value="1" style="strokeWidth=1;shadow=0;dashed=0;align=center;html=1;shape=mxgraph.mockup.forms.rrect;rSize=0;strokeColor=#999999;fontColor=#999999;fontSize=16;" vertex="1" parent="EMISpoD9vikw95knzvkW-3">
          <mxGeometry x="10" y="48" width="20" height="20" as="geometry" />
        </mxCell>
        <mxCell id="EMISpoD9vikw95knzvkW-15" value="2" style="strokeWidth=1;shadow=0;dashed=0;align=center;html=1;shape=mxgraph.mockup.forms.rrect;rSize=0;strokeColor=#999999;fontColor=#999999;fontSize=16;" vertex="1" parent="EMISpoD9vikw95knzvkW-3">
          <mxGeometry x="30" y="48" width="20" height="20" as="geometry" />
        </mxCell>
        <mxCell id="EMISpoD9vikw95knzvkW-16" value="3" style="strokeWidth=1;shadow=0;dashed=0;align=center;html=1;shape=mxgraph.mockup.forms.rrect;rSize=0;strokeColor=#999999;fontColor=#999999;fontSize=16;" vertex="1" parent="EMISpoD9vikw95knzvkW-3">
          <mxGeometry x="50" y="48" width="20" height="20" as="geometry" />
        </mxCell>
        <mxCell id="EMISpoD9vikw95knzvkW-17" value="4" style="strokeWidth=1;shadow=0;dashed=0;align=center;html=1;shape=mxgraph.mockup.forms.rrect;rSize=0;strokeColor=#999999;fontColor=#999999;fontSize=16;" vertex="1" parent="EMISpoD9vikw95knzvkW-3">
          <mxGeometry x="70" y="48" width="20" height="20" as="geometry" />
        </mxCell>
        <mxCell id="EMISpoD9vikw95knzvkW-18" value="5" style="strokeWidth=1;shadow=0;dashed=0;align=center;html=1;shape=mxgraph.mockup.forms.rrect;rSize=0;strokeColor=#999999;fontColor=#999999;fontSize=16;" vertex="1" parent="EMISpoD9vikw95knzvkW-3">
          <mxGeometry x="90" y="48" width="20" height="20" as="geometry" />
        </mxCell>
        <mxCell id="EMISpoD9vikw95knzvkW-19" value="6" style="strokeWidth=1;shadow=0;dashed=0;align=center;html=1;shape=mxgraph.mockup.forms.rrect;rSize=0;strokeColor=#999999;fontColor=#999999;fontSize=16;" vertex="1" parent="EMISpoD9vikw95knzvkW-3">
          <mxGeometry x="110" y="48" width="20" height="20" as="geometry" />
        </mxCell>
        <mxCell id="EMISpoD9vikw95knzvkW-20" value="7" style="strokeWidth=1;shadow=0;dashed=0;align=center;html=1;shape=mxgraph.mockup.forms.rrect;rSize=0;strokeColor=#999999;fontColor=#999999;fontSize=16;" vertex="1" parent="EMISpoD9vikw95knzvkW-3">
          <mxGeometry x="130" y="48" width="20" height="20" as="geometry" />
        </mxCell>
        <mxCell id="EMISpoD9vikw95knzvkW-21" value="8" style="strokeWidth=1;shadow=0;dashed=0;align=center;html=1;shape=mxgraph.mockup.forms.rrect;rSize=0;strokeColor=#999999;fontColor=#999999;fontSize=16;" vertex="1" parent="EMISpoD9vikw95knzvkW-3">
          <mxGeometry x="10" y="68" width="20" height="20" as="geometry" />
        </mxCell>
        <mxCell id="EMISpoD9vikw95knzvkW-22" value="9" style="strokeWidth=1;shadow=0;dashed=0;align=center;html=1;shape=mxgraph.mockup.forms.rrect;rSize=0;strokeColor=#999999;fontColor=#999999;fontSize=16;" vertex="1" parent="EMISpoD9vikw95knzvkW-3">
          <mxGeometry x="30" y="68" width="20" height="20" as="geometry" />
        </mxCell>
        <mxCell id="EMISpoD9vikw95knzvkW-23" value="10" style="strokeWidth=1;shadow=0;dashed=0;align=center;html=1;shape=mxgraph.mockup.forms.rrect;rSize=0;strokeColor=#999999;fontColor=#999999;fontSize=16;" vertex="1" parent="EMISpoD9vikw95knzvkW-3">
          <mxGeometry x="50" y="68" width="20" height="20" as="geometry" />
        </mxCell>
        <mxCell id="EMISpoD9vikw95knzvkW-24" value="11" style="strokeWidth=1;shadow=0;dashed=0;align=center;html=1;shape=mxgraph.mockup.forms.rrect;rSize=0;strokeColor=#999999;fontColor=#999999;fontSize=16;" vertex="1" parent="EMISpoD9vikw95knzvkW-3">
          <mxGeometry x="70" y="68" width="20" height="20" as="geometry" />
        </mxCell>
        <mxCell id="EMISpoD9vikw95knzvkW-25" value="12" style="strokeWidth=1;shadow=0;dashed=0;align=center;html=1;shape=mxgraph.mockup.forms.rrect;rSize=0;strokeColor=#999999;fontColor=#999999;fontSize=16;" vertex="1" parent="EMISpoD9vikw95knzvkW-3">
          <mxGeometry x="90" y="68" width="20" height="20" as="geometry" />
        </mxCell>
        <mxCell id="EMISpoD9vikw95knzvkW-26" value="13" style="strokeWidth=1;shadow=0;dashed=0;align=center;html=1;shape=mxgraph.mockup.forms.rrect;rSize=0;strokeColor=#999999;fontColor=#999999;fontSize=16;" vertex="1" parent="EMISpoD9vikw95knzvkW-3">
          <mxGeometry x="110" y="68" width="20" height="20" as="geometry" />
        </mxCell>
        <mxCell id="EMISpoD9vikw95knzvkW-27" value="14" style="strokeWidth=1;shadow=0;dashed=0;align=center;html=1;shape=mxgraph.mockup.forms.rrect;rSize=0;strokeColor=#999999;fontColor=#999999;fontSize=16;" vertex="1" parent="EMISpoD9vikw95knzvkW-3">
          <mxGeometry x="130" y="68" width="20" height="20" as="geometry" />
        </mxCell>
        <mxCell id="EMISpoD9vikw95knzvkW-28" value="15" style="strokeWidth=1;shadow=0;dashed=0;align=center;html=1;shape=mxgraph.mockup.forms.rrect;rSize=0;strokeColor=#999999;fontColor=#999999;fontSize=16;" vertex="1" parent="EMISpoD9vikw95knzvkW-3">
          <mxGeometry x="10" y="88" width="20" height="20" as="geometry" />
        </mxCell>
        <mxCell id="EMISpoD9vikw95knzvkW-29" value="16" style="strokeWidth=1;shadow=0;dashed=0;align=center;html=1;shape=mxgraph.mockup.forms.rrect;rSize=0;strokeColor=#999999;fontColor=#999999;fontSize=16;" vertex="1" parent="EMISpoD9vikw95knzvkW-3">
          <mxGeometry x="30" y="88" width="20" height="20" as="geometry" />
        </mxCell>
        <mxCell id="EMISpoD9vikw95knzvkW-30" value="17" style="strokeWidth=1;shadow=0;dashed=0;align=center;html=1;shape=mxgraph.mockup.forms.rrect;rSize=0;strokeColor=#999999;fontColor=#999999;fontSize=16;" vertex="1" parent="EMISpoD9vikw95knzvkW-3">
          <mxGeometry x="50" y="88" width="20" height="20" as="geometry" />
        </mxCell>
        <mxCell id="EMISpoD9vikw95knzvkW-31" value="18" style="strokeWidth=1;shadow=0;dashed=0;align=center;html=1;shape=mxgraph.mockup.forms.rrect;rSize=0;strokeColor=#999999;fontColor=#999999;fontSize=16;" vertex="1" parent="EMISpoD9vikw95knzvkW-3">
          <mxGeometry x="70" y="88" width="20" height="20" as="geometry" />
        </mxCell>
        <mxCell id="EMISpoD9vikw95knzvkW-32" value="19" style="strokeWidth=1;shadow=0;dashed=0;align=center;html=1;shape=mxgraph.mockup.forms.rrect;rSize=0;strokeColor=#999999;fontColor=#999999;fontSize=16;" vertex="1" parent="EMISpoD9vikw95knzvkW-3">
          <mxGeometry x="90" y="88" width="20" height="20" as="geometry" />
        </mxCell>
        <mxCell id="EMISpoD9vikw95knzvkW-33" value="20" style="strokeWidth=1;shadow=0;dashed=0;align=center;html=1;shape=mxgraph.mockup.forms.rrect;rSize=0;strokeColor=#999999;fontColor=#999999;fontSize=16;" vertex="1" parent="EMISpoD9vikw95knzvkW-3">
          <mxGeometry x="110" y="88" width="20" height="20" as="geometry" />
        </mxCell>
        <mxCell id="EMISpoD9vikw95knzvkW-34" value="21" style="strokeWidth=1;shadow=0;dashed=0;align=center;html=1;shape=mxgraph.mockup.forms.rrect;rSize=0;strokeColor=#999999;fontColor=#999999;fontSize=16;" vertex="1" parent="EMISpoD9vikw95knzvkW-3">
          <mxGeometry x="130" y="88" width="20" height="20" as="geometry" />
        </mxCell>
        <mxCell id="EMISpoD9vikw95knzvkW-35" value="22" style="strokeWidth=1;shadow=0;dashed=0;align=center;html=1;shape=mxgraph.mockup.forms.rrect;rSize=0;strokeColor=#999999;fontColor=#999999;fontSize=16;" vertex="1" parent="EMISpoD9vikw95knzvkW-3">
          <mxGeometry x="10" y="108" width="20" height="20" as="geometry" />
        </mxCell>
        <mxCell id="EMISpoD9vikw95knzvkW-36" value="23" style="strokeWidth=1;shadow=0;dashed=0;align=center;html=1;shape=mxgraph.mockup.forms.rrect;rSize=0;strokeColor=#999999;fontColor=#999999;fontSize=16;" vertex="1" parent="EMISpoD9vikw95knzvkW-3">
          <mxGeometry x="30" y="108" width="20" height="20" as="geometry" />
        </mxCell>
        <mxCell id="EMISpoD9vikw95knzvkW-37" value="25" style="strokeWidth=1;shadow=0;dashed=0;align=center;html=1;shape=mxgraph.mockup.forms.rrect;rSize=0;strokeColor=#999999;fontColor=#999999;fontSize=16;" vertex="1" parent="EMISpoD9vikw95knzvkW-3">
          <mxGeometry x="70" y="108" width="20" height="20" as="geometry" />
        </mxCell>
        <mxCell id="EMISpoD9vikw95knzvkW-38" value="26" style="strokeWidth=1;shadow=0;dashed=0;align=center;html=1;shape=mxgraph.mockup.forms.rrect;rSize=0;strokeColor=#999999;fontColor=#999999;fontSize=16;" vertex="1" parent="EMISpoD9vikw95knzvkW-3">
          <mxGeometry x="90" y="108" width="20" height="20" as="geometry" />
        </mxCell>
        <mxCell id="EMISpoD9vikw95knzvkW-39" value="27" style="strokeWidth=1;shadow=0;dashed=0;align=center;html=1;shape=mxgraph.mockup.forms.rrect;rSize=0;strokeColor=#999999;fontColor=#999999;fontSize=16;" vertex="1" parent="EMISpoD9vikw95knzvkW-3">
          <mxGeometry x="110" y="108" width="20" height="20" as="geometry" />
        </mxCell>
        <mxCell id="EMISpoD9vikw95knzvkW-40" value="28" style="strokeWidth=1;shadow=0;dashed=0;align=center;html=1;shape=mxgraph.mockup.forms.rrect;rSize=0;strokeColor=#999999;fontColor=#999999;fontSize=16;" vertex="1" parent="EMISpoD9vikw95knzvkW-3">
          <mxGeometry x="130" y="108" width="20" height="20" as="geometry" />
        </mxCell>
        <mxCell id="EMISpoD9vikw95knzvkW-41" value="29" style="strokeWidth=1;shadow=0;dashed=0;align=center;html=1;shape=mxgraph.mockup.forms.rrect;rSize=0;strokeColor=#999999;fontColor=#999999;fontSize=16;" vertex="1" parent="EMISpoD9vikw95knzvkW-3">
          <mxGeometry x="10" y="128" width="20" height="20" as="geometry" />
        </mxCell>
        <mxCell id="EMISpoD9vikw95knzvkW-42" value="30" style="strokeWidth=1;shadow=0;dashed=0;align=center;html=1;shape=mxgraph.mockup.forms.rrect;rSize=0;strokeColor=#999999;fontColor=#999999;fontSize=16;" vertex="1" parent="EMISpoD9vikw95knzvkW-3">
          <mxGeometry x="30" y="128" width="20" height="20" as="geometry" />
        </mxCell>
        <mxCell id="EMISpoD9vikw95knzvkW-43" value="31" style="strokeWidth=1;shadow=0;dashed=0;align=center;html=1;shape=mxgraph.mockup.forms.rrect;rSize=0;strokeColor=#999999;fontColor=#999999;fontSize=16;" vertex="1" parent="EMISpoD9vikw95knzvkW-3">
          <mxGeometry x="50" y="128" width="20" height="20" as="geometry" />
        </mxCell>
        <mxCell id="EMISpoD9vikw95knzvkW-44" value="1" style="strokeWidth=1;shadow=0;dashed=0;align=center;html=1;shape=mxgraph.mockup.forms.rrect;rSize=0;strokeColor=#999999;fontColor=#999999;fillColor=#ddeeff;fontSize=16;" vertex="1" parent="EMISpoD9vikw95knzvkW-3">
          <mxGeometry x="70" y="128" width="20" height="20" as="geometry" />
        </mxCell>
        <mxCell id="EMISpoD9vikw95knzvkW-45" value="2" style="strokeWidth=1;shadow=0;dashed=0;align=center;html=1;shape=mxgraph.mockup.forms.rrect;rSize=0;strokeColor=#999999;fontColor=#999999;fillColor=#ddeeff;fontSize=16;" vertex="1" parent="EMISpoD9vikw95knzvkW-3">
          <mxGeometry x="90" y="128" width="20" height="20" as="geometry" />
        </mxCell>
        <mxCell id="EMISpoD9vikw95knzvkW-46" value="3" style="strokeWidth=1;shadow=0;dashed=0;align=center;html=1;shape=mxgraph.mockup.forms.rrect;rSize=0;strokeColor=#999999;fontColor=#999999;fillColor=#ddeeff;fontSize=16;" vertex="1" parent="EMISpoD9vikw95knzvkW-3">
          <mxGeometry x="110" y="128" width="20" height="20" as="geometry" />
        </mxCell>
        <mxCell id="EMISpoD9vikw95knzvkW-47" value="4" style="strokeWidth=1;shadow=0;dashed=0;align=center;html=1;shape=mxgraph.mockup.forms.rrect;rSize=0;strokeColor=#999999;fontColor=#999999;fillColor=#ddeeff;fontSize=16;" vertex="1" parent="EMISpoD9vikw95knzvkW-3">
          <mxGeometry x="130" y="128" width="20" height="20" as="geometry" />
        </mxCell>
        <mxCell id="EMISpoD9vikw95knzvkW-48" value="5" style="strokeWidth=1;shadow=0;dashed=0;align=center;html=1;shape=mxgraph.mockup.forms.rrect;rSize=0;strokeColor=#999999;fontColor=#999999;fillColor=#ddeeff;fontSize=16;" vertex="1" parent="EMISpoD9vikw95knzvkW-3">
          <mxGeometry x="10" y="148" width="20" height="20" as="geometry" />
        </mxCell>
        <mxCell id="EMISpoD9vikw95knzvkW-49" value="6" style="strokeWidth=1;shadow=0;dashed=0;align=center;html=1;shape=mxgraph.mockup.forms.rrect;rSize=0;strokeColor=#999999;fontColor=#999999;fillColor=#ddeeff;fontSize=16;" vertex="1" parent="EMISpoD9vikw95knzvkW-3">
          <mxGeometry x="30" y="148" width="20" height="20" as="geometry" />
        </mxCell>
        <mxCell id="EMISpoD9vikw95knzvkW-50" value="7" style="strokeWidth=1;shadow=0;dashed=0;align=center;html=1;shape=mxgraph.mockup.forms.rrect;rSize=0;strokeColor=#999999;fontColor=#999999;fillColor=#ddeeff;fontSize=16;" vertex="1" parent="EMISpoD9vikw95knzvkW-3">
          <mxGeometry x="50" y="148" width="20" height="20" as="geometry" />
        </mxCell>
        <mxCell id="EMISpoD9vikw95knzvkW-51" value="8" style="strokeWidth=1;shadow=0;dashed=0;align=center;html=1;shape=mxgraph.mockup.forms.rrect;rSize=0;strokeColor=#999999;fontColor=#999999;fillColor=#ddeeff;fontSize=16;" vertex="1" parent="EMISpoD9vikw95knzvkW-3">
          <mxGeometry x="70" y="148" width="20" height="20" as="geometry" />
        </mxCell>
        <mxCell id="EMISpoD9vikw95knzvkW-52" value="9" style="strokeWidth=1;shadow=0;dashed=0;align=center;html=1;shape=mxgraph.mockup.forms.rrect;rSize=0;strokeColor=#999999;fontColor=#999999;fillColor=#ddeeff;fontSize=16;" vertex="1" parent="EMISpoD9vikw95knzvkW-3">
          <mxGeometry x="90" y="148" width="20" height="20" as="geometry" />
        </mxCell>
        <mxCell id="EMISpoD9vikw95knzvkW-53" value="10" style="strokeWidth=1;shadow=0;dashed=0;align=center;html=1;shape=mxgraph.mockup.forms.rrect;rSize=0;strokeColor=#999999;fontColor=#999999;fillColor=#ddeeff;fontSize=16;" vertex="1" parent="EMISpoD9vikw95knzvkW-3">
          <mxGeometry x="110" y="148" width="20" height="20" as="geometry" />
        </mxCell>
        <mxCell id="EMISpoD9vikw95knzvkW-54" value="11" style="strokeWidth=1;shadow=0;dashed=0;align=center;html=1;shape=mxgraph.mockup.forms.rrect;rSize=0;strokeColor=#999999;fontColor=#999999;fillColor=#ddeeff;fontSize=16;" vertex="1" parent="EMISpoD9vikw95knzvkW-3">
          <mxGeometry x="130" y="148" width="20" height="20" as="geometry" />
        </mxCell>
        <mxCell id="EMISpoD9vikw95knzvkW-55" value="24" style="strokeWidth=1;shadow=0;dashed=0;align=center;html=1;shape=mxgraph.mockup.forms.rrect;rSize=0;strokeColor=#ff0000;fontColor=#ffffff;strokeWidth=2;fillColor=#008cff;fontSize=16;" vertex="1" parent="EMISpoD9vikw95knzvkW-3">
          <mxGeometry x="50" y="108" width="20" height="20" as="geometry" />
        </mxCell>
        <mxCell id="EMISpoD9vikw95knzvkW-56" value="From" style="strokeWidth=1;shadow=0;dashed=0;align=center;html=1;shape=mxgraph.mockup.forms.anchor;align=right;spacingRight=2;fontColor=#666666;fontSize=16;" vertex="1" parent="8962rQQDY3VNNf6We3Pp-1">
          <mxGeometry x="720" y="300" width="50" height="18" as="geometry" />
        </mxCell>
        <mxCell id="EMISpoD9vikw95knzvkW-57" value="john@jgraph.com" style="strokeWidth=1;shadow=0;dashed=0;align=center;html=1;shape=mxgraph.mockup.forms.rrect;fillColor=#ffffff;rSize=0;fontColor=#666666;align=left;spacingLeft=3;strokeColor=#999999;fontSize=16;" vertex="1" parent="8962rQQDY3VNNf6We3Pp-1">
          <mxGeometry x="770" y="300" width="350" height="18" as="geometry" />
        </mxCell>
        <mxCell id="EMISpoD9vikw95knzvkW-58" value="Subject" style="strokeWidth=1;shadow=0;dashed=0;align=center;html=1;shape=mxgraph.mockup.forms.anchor;align=right;spacingRight=2;fontColor=#666666;fontSize=16;" vertex="1" parent="8962rQQDY3VNNf6We3Pp-1">
          <mxGeometry x="720" y="335" width="50" height="18" as="geometry" />
        </mxCell>
        <mxCell id="EMISpoD9vikw95knzvkW-59" value="Greeting" style="strokeWidth=1;shadow=0;dashed=0;align=center;html=1;shape=mxgraph.mockup.forms.rrect;fillColor=#ffffff;rSize=0;fontColor=#666666;align=left;spacingLeft=3;strokeColor=#999999;fontSize=16;" vertex="1" parent="8962rQQDY3VNNf6We3Pp-1">
          <mxGeometry x="770" y="335" width="350" height="18" as="geometry" />
        </mxCell>
        <mxCell id="EMISpoD9vikw95knzvkW-60" value="To" style="strokeWidth=1;shadow=0;dashed=0;align=center;html=1;shape=mxgraph.mockup.forms.anchor;align=right;spacingRight=2;fontColor=#666666;fontSize=16;" vertex="1" parent="8962rQQDY3VNNf6We3Pp-1">
          <mxGeometry x="720" y="370" width="50" height="18" as="geometry" />
        </mxCell>
        <mxCell id="EMISpoD9vikw95knzvkW-61" value="fred@jgraph.com" style="strokeWidth=1;shadow=0;dashed=0;align=center;html=1;shape=mxgraph.mockup.forms.rrect;fillColor=#ffffff;rSize=0;fontColor=#666666;align=left;spacingLeft=3;strokeColor=#999999;fontSize=16;" vertex="1" parent="8962rQQDY3VNNf6We3Pp-1">
          <mxGeometry x="770" y="370" width="350" height="18" as="geometry" />
        </mxCell>
        <mxCell id="EMISpoD9vikw95knzvkW-62" value="CC" style="strokeWidth=1;shadow=0;dashed=0;align=center;html=1;shape=mxgraph.mockup.forms.anchor;align=right;spacingRight=2;fontColor=#666666;fontSize=16;" vertex="1" parent="8962rQQDY3VNNf6We3Pp-1">
          <mxGeometry x="720" y="405" width="50" height="18" as="geometry" />
        </mxCell>
        <mxCell id="EMISpoD9vikw95knzvkW-63" value="" style="strokeWidth=1;shadow=0;dashed=0;align=center;html=1;shape=mxgraph.mockup.forms.rrect;fillColor=#ffffff;rSize=0;fontColor=#666666;align=left;spacingLeft=3;strokeColor=#999999;fontSize=16;" vertex="1" parent="8962rQQDY3VNNf6We3Pp-1">
          <mxGeometry x="770" y="405" width="350" height="18" as="geometry" />
        </mxCell>
        <mxCell id="EMISpoD9vikw95knzvkW-64" value="BCC" style="strokeWidth=1;shadow=0;dashed=0;align=center;html=1;shape=mxgraph.mockup.forms.anchor;align=right;spacingRight=2;fontColor=#666666;fontSize=16;" vertex="1" parent="8962rQQDY3VNNf6We3Pp-1">
          <mxGeometry x="720" y="440" width="50" height="18" as="geometry" />
        </mxCell>
        <mxCell id="EMISpoD9vikw95knzvkW-65" value="" style="strokeWidth=1;shadow=0;dashed=0;align=center;html=1;shape=mxgraph.mockup.forms.rrect;fillColor=#ffffff;rSize=0;fontColor=#666666;align=left;spacingLeft=3;strokeColor=#999999;fontSize=16;" vertex="1" parent="8962rQQDY3VNNf6We3Pp-1">
          <mxGeometry x="770" y="440" width="350" height="18" as="geometry" />
        </mxCell>
        <mxCell id="EMISpoD9vikw95knzvkW-66" value="Lorem ipsum dolor sit amet, consectetur adipisicing elit, sed do eiusmod tempor incididunt ut labore et dolore magna aliqua. Ut enim ad minim veniam, quis nostrud exercitation ullamco laboris nisi ut aliquip ex ea commodo consequat. Duis aute irure dolor in reprehenderit in voluptate velit esse cillum dolore eu fugiat nulla pariatur. Excepteur sint occaecat cupidatat non proident, sunt in culpa qui officia deserunt mollit anim id est laborum." style="strokeWidth=1;shadow=0;dashed=0;align=center;html=1;shape=mxgraph.mockup.forms.rrect;fillColor=#ffffff;rSize=0;fontColor=#666666;align=left;spacingLeft=3;strokeColor=#999999;verticalAlign=top;whiteSpace=wrap;fontSize=16;" vertex="1" parent="8962rQQDY3VNNf6We3Pp-1">
          <mxGeometry x="720" y="475" width="400" height="125" as="geometry" />
        </mxCell>
        <mxCell id="EMISpoD9vikw95knzvkW-67" value="" style="verticalLabelPosition=bottom;shadow=0;dashed=0;align=center;html=1;verticalAlign=top;strokeWidth=1;shape=mxgraph.mockup.menus_and_buttons.font_style_selector_1;fontSize=16;" vertex="1" parent="8962rQQDY3VNNf6We3Pp-1">
          <mxGeometry x="300" y="240" width="136" height="31" as="geometry" />
        </mxCell>
        <mxCell id="EMISpoD9vikw95knzvkW-68" value="" style="verticalLabelPosition=bottom;shadow=0;dashed=0;align=center;html=1;verticalAlign=top;strokeWidth=1;shape=mxgraph.mockup.menus_and_buttons.font_style_selector_2;fontSize=16;" vertex="1" parent="8962rQQDY3VNNf6We3Pp-1">
          <mxGeometry x="230" y="335" width="235" height="31" as="geometry" />
        </mxCell>
        <mxCell id="EMISpoD9vikw95knzvkW-69" value="" style="strokeWidth=1;shadow=0;dashed=0;align=center;html=1;shape=mxgraph.mockup.forms.rrect;rSize=0;strokeColor=#999999;fillColor=#ffffff;fontSize=16;" vertex="1" parent="8962rQQDY3VNNf6We3Pp-1">
          <mxGeometry x="530" y="230" width="150" height="200" as="geometry" />
        </mxCell>
        <mxCell id="EMISpoD9vikw95knzvkW-70" value="Title" style="strokeWidth=1;shadow=0;dashed=0;align=center;html=1;shape=mxgraph.mockup.forms.rrect;rSize=0;strokeColor=#999999;fontColor=#008cff;fontSize=17;fillColor=#ffffff;resizeWidth=1;whiteSpace=wrap;" vertex="1" parent="EMISpoD9vikw95knzvkW-69">
          <mxGeometry width="150" height="30" relative="1" as="geometry">
            <mxPoint y="-1" as="offset" />
          </mxGeometry>
        </mxCell>
        <mxCell id="EMISpoD9vikw95knzvkW-71" value="Item 1" style="strokeWidth=1;shadow=0;dashed=0;align=center;html=1;shape=mxgraph.mockup.forms.anchor;fontSize=17;fontColor=#666666;align=left;spacingLeft=5;resizeWidth=1;whiteSpace=wrap;" vertex="1" parent="EMISpoD9vikw95knzvkW-69">
          <mxGeometry width="150" height="20" relative="1" as="geometry">
            <mxPoint y="30" as="offset" />
          </mxGeometry>
        </mxCell>
        <mxCell id="EMISpoD9vikw95knzvkW-72" value="Item 2" style="strokeWidth=1;shadow=0;dashed=0;align=center;html=1;shape=mxgraph.mockup.forms.anchor;fontSize=17;fontColor=#666666;align=left;spacingLeft=5;resizeWidth=1;whiteSpace=wrap;" vertex="1" parent="EMISpoD9vikw95knzvkW-69">
          <mxGeometry width="150" height="20" relative="1" as="geometry">
            <mxPoint y="50" as="offset" />
          </mxGeometry>
        </mxCell>
        <mxCell id="EMISpoD9vikw95knzvkW-73" value="Item 3" style="strokeWidth=1;shadow=0;dashed=0;align=center;html=1;shape=mxgraph.mockup.forms.rrect;rSize=0;fontSize=17;fontColor=#666666;align=left;spacingLeft=5;fillColor=#ddeeff;strokeColor=none;resizeWidth=1;whiteSpace=wrap;" vertex="1" parent="EMISpoD9vikw95knzvkW-69">
          <mxGeometry width="150" height="20" relative="1" as="geometry">
            <mxPoint y="70" as="offset" />
          </mxGeometry>
        </mxCell>
        <mxCell id="EMISpoD9vikw95knzvkW-74" value="Item 4" style="strokeWidth=1;shadow=0;dashed=0;align=center;html=1;shape=mxgraph.mockup.forms.anchor;fontSize=17;fontColor=#666666;align=left;spacingLeft=5;resizeWidth=1;whiteSpace=wrap;" vertex="1" parent="EMISpoD9vikw95knzvkW-69">
          <mxGeometry width="150" height="20" relative="1" as="geometry">
            <mxPoint y="90" as="offset" />
          </mxGeometry>
        </mxCell>
        <mxCell id="EMISpoD9vikw95knzvkW-75" value="Option 1" style="strokeWidth=1;shadow=0;dashed=0;align=center;html=1;shape=mxgraph.mockup.forms.comboBox;strokeColor=#999999;fillColor=#ddeeff;align=left;fillColor2=#aaddff;mainText=;fontColor=#666666;fontSize=17;spacingLeft=3;" vertex="1" parent="8962rQQDY3VNNf6We3Pp-1">
          <mxGeometry x="750" y="210" width="150" height="30" as="geometry" />
        </mxCell>
        <mxCell id="EMISpoD9vikw95knzvkW-76" value="" style="strokeWidth=1;shadow=0;dashed=0;align=center;html=1;shape=mxgraph.mockup.forms.rrect;rSize=0;strokeColor=#999999;fillColor=#ffffff;recursiveResize=0;fontSize=16;" vertex="1" parent="8962rQQDY3VNNf6We3Pp-1">
          <mxGeometry x="538" y="560" width="150" height="120" as="geometry" />
        </mxCell>
        <mxCell id="EMISpoD9vikw95knzvkW-77" value="Option 1" style="strokeWidth=1;shadow=0;dashed=0;align=center;html=1;shape=mxgraph.mockup.forms.rrect;rSize=0;fillColor=#eeeeee;strokeColor=#999999;gradientColor=#cccccc;align=left;spacingLeft=4;fontSize=17;fontColor=#666666;labelPosition=right;" vertex="1" parent="EMISpoD9vikw95knzvkW-76">
          <mxGeometry x="8" y="7.5" width="15" height="15" as="geometry" />
        </mxCell>
        <mxCell id="EMISpoD9vikw95knzvkW-78" value="Option 2" style="strokeWidth=1;shadow=0;dashed=0;align=center;html=1;shape=mxgraph.mockup.forms.rrect;rSize=0;fillColor=#eeeeee;strokeColor=#999999;gradientColor=#cccccc;align=left;spacingLeft=4;fontSize=17;fontColor=#666666;labelPosition=right;" vertex="1" parent="EMISpoD9vikw95knzvkW-76">
          <mxGeometry x="8" y="37.5" width="15" height="15" as="geometry" />
        </mxCell>
        <mxCell id="EMISpoD9vikw95knzvkW-79" value="Option 3" style="strokeWidth=1;shadow=0;dashed=0;align=center;html=1;shape=mxgraph.mockup.forms.checkbox;rSize=0;resizable=0;fillColor=#aaaaaa;strokeColor=#444444;gradientColor=#666666;align=left;spacingLeft=4;fontSize=17;fontColor=#008cff;labelPosition=right;" vertex="1" parent="EMISpoD9vikw95knzvkW-76">
          <mxGeometry x="8" y="67.5" width="15" height="15" as="geometry" />
        </mxCell>
        <mxCell id="EMISpoD9vikw95knzvkW-80" value="Option 4" style="strokeWidth=1;shadow=0;dashed=0;align=center;html=1;shape=mxgraph.mockup.forms.rrect;rSize=0;fillColor=#eeeeee;strokeColor=#999999;gradientColor=#cccccc;align=left;spacingLeft=4;fontSize=17;fontColor=#666666;labelPosition=right;" vertex="1" parent="EMISpoD9vikw95knzvkW-76">
          <mxGeometry x="8" y="97.5" width="15" height="15" as="geometry" />
        </mxCell>
        <mxCell id="EMISpoD9vikw95knzvkW-81" value="" style="strokeWidth=1;shadow=0;dashed=0;align=center;html=1;shape=mxgraph.mockup.containers.rrect;rSize=0;strokeColor=#666666;fontSize=16;" vertex="1" parent="8962rQQDY3VNNf6We3Pp-1">
          <mxGeometry x="425" y="642" width="100" height="220" as="geometry" />
        </mxCell>
        <mxCell id="EMISpoD9vikw95knzvkW-82" value="Group 1" style="strokeColor=inherit;fillColor=inherit;gradientColor=inherit;strokeWidth=1;shadow=0;dashed=0;align=center;html=1;shape=mxgraph.mockup.containers.rrect;rSize=0;fontSize=17;fontColor=#666666;fontStyle=1;resizeWidth=1;whiteSpace=wrap;" vertex="1" parent="EMISpoD9vikw95knzvkW-81">
          <mxGeometry width="100" height="26" relative="1" as="geometry" />
        </mxCell>
        <mxCell id="EMISpoD9vikw95knzvkW-83" value="Group 2" style="strokeColor=inherit;fillColor=inherit;gradientColor=inherit;strokeWidth=1;shadow=0;dashed=0;align=center;html=1;shape=mxgraph.mockup.containers.rrect;rSize=0;fontSize=17;fontColor=#666666;fontStyle=1;resizeWidth=1;whiteSpace=wrap;" vertex="1" parent="EMISpoD9vikw95knzvkW-81">
          <mxGeometry width="100" height="26" relative="1" as="geometry">
            <mxPoint y="26" as="offset" />
          </mxGeometry>
        </mxCell>
        <mxCell id="EMISpoD9vikw95knzvkW-84" value="Group 3" style="strokeWidth=1;shadow=0;dashed=0;align=center;html=1;shape=mxgraph.mockup.containers.rrect;rSize=0;fontSize=17;fontColor=#ffffff;fontStyle=1;fillColor=#008cff;strokeColor=#008cff;resizeWidth=1;whiteSpace=wrap;" vertex="1" parent="EMISpoD9vikw95knzvkW-81">
          <mxGeometry width="100" height="26" relative="1" as="geometry">
            <mxPoint y="52" as="offset" />
          </mxGeometry>
        </mxCell>
        <mxCell id="EMISpoD9vikw95knzvkW-85" value="Group 4" style="strokeColor=inherit;fillColor=inherit;gradientColor=inherit;strokeWidth=1;shadow=0;dashed=0;align=center;html=1;shape=mxgraph.mockup.containers.rrect;rSize=0;fontSize=17;fontColor=#666666;fontStyle=1;resizeWidth=1;whiteSpace=wrap;" vertex="1" parent="EMISpoD9vikw95knzvkW-81">
          <mxGeometry y="1" width="100" height="26" relative="1" as="geometry">
            <mxPoint y="-26" as="offset" />
          </mxGeometry>
        </mxCell>
        <mxCell id="EMISpoD9vikw95knzvkW-86" value="" style="verticalLabelPosition=bottom;shadow=0;dashed=0;align=center;html=1;verticalAlign=top;strokeWidth=1;shape=mxgraph.mockup.containers.videoPlayer;strokeColor=#666666;strokeColor2=#008cff;strokeColor3=#c4c4c4;textColor=#666666;fillColor2=#008cff;barHeight=30;barPos=20;fontSize=16;" vertex="1" parent="8962rQQDY3VNNf6We3Pp-1">
          <mxGeometry x="820" y="725" width="300" height="200" as="geometry" />
        </mxCell>
        <mxCell id="EMISpoD9vikw95knzvkW-2" value="" style="verticalLabelPosition=bottom;shadow=0;dashed=0;align=center;html=1;verticalAlign=top;strokeWidth=1;shape=mxgraph.mockup.misc.loading_circle_2;pointerEvents=1;fontSize=16;" vertex="1" parent="1">
          <mxGeometry x="450" y="660" width="90" height="90" as="geometry" />
        </mxCell>
      </root>
    </mxGraphModel>
  </diagram>
  <diagram id="IumwMew8DMnh5E6io-6L" name="sss">
    <mxGraphModel dx="1036" dy="585" grid="0" gridSize="10" guides="1" tooltips="1" connect="1" arrows="1" fold="1" page="0" pageScale="1" pageWidth="827" pageHeight="1169" math="0" shadow="0">
      <root>
        <mxCell id="0" />
        <mxCell id="1" parent="0" />
      </root>
    </mxGraphModel>
  </diagram>
  <diagram id="J8ck1C1Ix8iTYsKzNS4N" name="第 3 页">
    <mxGraphModel dx="1036" dy="585" grid="0" gridSize="10" guides="1" tooltips="1" connect="1" arrows="1" fold="1" page="0" pageScale="1" pageWidth="827" pageHeight="1169" math="0" shadow="0">
      <root>
        <mxCell id="0" />
        <mxCell id="1" parent="0" />
      </root>
    </mxGraphModel>
  </diagram>
</mxfile>
